<svg width="48" height="48" viewBox="0 0 48 48" fill="none" xmlns="http://www.w3.org/2000/svg">
<rect width="48" height="48" rx="8" fill="#F7F7FF"/>
<path d="M25.15 33V15C25.15 14.3649 24.6351 13.85 24 13.85C23.3649 13.85 22.85 14.3649 22.85 15V33C22.85 33.6351 23.3649 34.15 24 34.15C24.6351 34.15 25.15 33.6351 25.15 33Z" fill="#6F6C90" stroke="#6F6C90" stroke-width="0.3" stroke-linecap="round"/>
<path d="M33 22.85H15C14.3649 22.85 13.85 23.3649 13.85 24C13.85 24.6351 14.3649 25.15 15 25.15H33C33.6351 25.15 34.15 24.6351 34.15 24C34.15 23.3649 33.6351 22.85 33 22.85Z" fill="#6F6C90" stroke="#6F6C90" stroke-width="0.3" stroke-linecap="round"/>
</svg>
